<?xml version="1.0" standalone="no"?>
<!DOCTYPE svg PUBLIC "-//W3C//DTD SVG 20010904//EN"
 "http://www.w3.org/TR/2001/REC-SVG-20010904/DTD/svg10.dtd">
<svg version="1.0" xmlns="http://www.w3.org/2000/svg"
 width="1024.000000pt" height="1024.000000pt" viewBox="0 0 1024.000000 1024.000000"
 preserveAspectRatio="xMidYMid meet">
<metadata>
Created by potrace 1.14, written by Peter Selinger 2001-2017
</metadata>
<g transform="translate(0.000000,1024.000000) scale(0.100000,-0.100000)"
fill="#000000" stroke="none">
<path d="M4970 9572 c-58 -31 -132 -68 -165 -81 -33 -13 -88 -36 -123 -52 -34
-16 -68 -29 -75 -29 -6 0 -20 -7 -30 -15 -11 -7 -36 -17 -58 -20 -21 -4 -85
-25 -141 -46 -57 -22 -124 -47 -151 -54 -26 -8 -71 -21 -100 -30 -28 -9 -70
-20 -92 -26 -21 -5 -44 -14 -50 -19 -6 -5 -29 -13 -50 -19 -22 -5 -87 -21
-145 -36 -516 -128 -786 -181 -1310 -255 -377 -53 -603 -83 -685 -90 -49 -5
-115 -13 -145 -19 -30 -5 -120 -17 -200 -26 -164 -19 -201 -28 -224 -54 -15
-17 -16 -133 -14 -1522 4 -1489 4 -1506 26 -1664 108 -779 367 -1503 798
-2226 547 -919 1247 -1643 2167 -2243 293 -191 885 -536 920 -536 46 0 675
366 1002 583 908 604 1578 1322 2137 2292 395 684 648 1412 745 2135 14 110
17 305 22 1630 4 1005 3 1513 -4 1530 -18 44 -66 57 -325 90 -239 30 -382 48
-545 71 -44 6 -132 17 -195 24 -151 18 -246 33 -575 90 -44 8 -125 21 -180 30
-55 9 -113 20 -130 25 -16 4 -52 11 -79 15 -27 4 -58 10 -70 15 -11 4 -95 25
-186 45 -242 54 -369 88 -560 150 -25 8 -51 15 -58 15 -8 0 -64 20 -125 44
-62 24 -146 53 -187 66 -41 13 -89 29 -107 36 -17 8 -34 14 -37 14 -3 0 -41
16 -83 36 -111 50 -115 52 -143 60 -14 4 -79 33 -145 65 -161 79 -182 79 -325
1z m332 -343 c582 -252 1259 -444 2045 -579 270 -47 1311 -190 1380 -190 11 0
13 -226 13 -1252 0 -1241 -4 -1435 -35 -1668 -39 -287 -72 -457 -130 -670
-185 -671 -492 -1296 -958 -1950 -152 -213 -430 -540 -634 -746 -348 -351
-699 -630 -1193 -946 -195 -125 -638 -378 -661 -378 -18 0 -325 171 -514 287
-527 324 -914 619 -1284 978 -599 583 -1125 1354 -1437 2107 -207 502 -305
884 -366 1433 -22 197 -23 222 -23 1500 l0 1300 55 7 c30 4 170 21 310 38
1017 124 1613 236 2235 420 322 95 799 273 961 358 21 12 46 21 56 22 9 0 90
-32 180 -71z"/>
<path d="M5002 8999 c-154 -68 -545 -207 -787 -280 -394 -119 -828 -219 -1274
-294 -180 -30 -340 -53 -1009 -145 -79 -11 -157 -20 -173 -20 l-29 0 0 -1122
c0 -1256 6 -1397 71 -1798 135 -821 552 -1709 1168 -2485 525 -661 1121 -1160
1962 -1644 98 -55 183 -101 189 -101 32 0 440 239 675 395 425 282 725 525
1035 841 707 720 1244 1621 1503 2519 67 231 123 519 154 790 14 131 17 303
20 1378 2 675 1 1227 -3 1227 -18 0 -775 103 -884 121 -980 155 -1592 314
-2299 596 -102 40 -189 73 -195 72 -6 0 -62 -23 -124 -50z m203 -944 c36 -99
79 -214 94 -255 l28 -75 289 -5 289 -5 -70 -56 c-38 -30 -122 -93 -185 -140
-197 -145 -209 -154 -210 -163 0 -5 36 -119 81 -254 44 -134 79 -251 77 -259
-2 -9 -78 37 -228 138 -124 83 -229 152 -235 152 -5 0 -104 -63 -220 -140
-222 -148 -255 -169 -255 -156 0 4 38 124 84 266 l84 258 -72 52 c-39 29 -144
106 -233 172 -90 65 -163 123 -163 127 0 4 128 8 284 8 l284 0 39 103 c22 56
66 175 98 265 33 89 62 159 66 155 4 -5 37 -89 74 -188z m-2090 -140 c48 -132
92 -248 97 -257 8 -17 32 -18 289 -18 160 0 278 -4 275 -9 -3 -5 -104 -82
-223 -171 -120 -90 -222 -166 -226 -170 -10 -9 1 -52 82 -315 33 -110 61 -204
61 -209 0 -5 -8 -2 -17 6 -10 8 -114 79 -230 157 l-213 143 -127 -89 c-200
-139 -333 -226 -338 -221 -3 2 4 31 14 64 48 147 141 446 141 453 0 5 -26 26
-57 49 -75 52 -349 255 -388 287 l-30 24 293 0 293 1 13 33 c7 17 53 139 101
270 52 142 91 233 96 225 3 -7 46 -121 94 -253z m4163 165 c34 -93 137 -369
154 -412 l10 -28 284 0 c156 0 284 -4 284 -8 0 -5 -103 -86 -230 -180 -225
-168 -229 -172 -220 -199 13 -43 130 -414 142 -451 5 -18 8 -35 6 -37 -2 -2
-102 63 -223 146 -121 82 -225 152 -231 155 -7 3 -114 -65 -240 -150 -125 -86
-229 -155 -231 -153 -2 3 15 64 113 385 19 62 34 119 34 126 0 8 -105 92 -232
187 l-233 174 287 3 286 2 29 78 c16 42 60 164 98 269 38 106 72 190 75 185 4
-4 21 -45 38 -92z m13 -1507 c13 -16 12 -17 -3 -4 -10 7 -18 15 -18 17 0 8 8
3 21 -13z m-4311 2 c0 -2 -10 -9 -22 -15 -22 -11 -22 -10 -4 4 21 17 26 19 26
11z m-50 -39 c0 -2 -8 -10 -17 -17 -16 -13 -17 -12 -4 4 13 16 21 21 21 13z
m170 -10 c0 -2 -8 -10 -17 -17 -16 -13 -17 -12 -4 4 13 16 21 21 21 13z m53
-62 c-6 -16 -22 -19 -24 -4 -3 20 -4 25 -13 39 -6 9 0 7 17 -4 15 -10 24 -22
20 -31z m4227 21 c13 -14 21 -25 18 -25 -2 0 -15 11 -28 25 -13 14 -21 25 -18
25 2 0 15 -11 28 -25z m-4497 4 c-6 -6 -9 -19 -6 -28 4 -13 3 -14 -5 -1 -10
14 1 40 16 40 3 0 1 -5 -5 -11z m4512 -49 c3 -6 -1 -7 -9 -4 -18 7 -21 14 -7
14 6 0 13 -4 16 -10z m56 -27 c11 -15 11 -16 0 -6 -7 6 -21 9 -30 6 -14 -4
-14 -3 -1 6 8 6 16 11 16 11 1 0 8 -8 15 -17z m160 -160 c13 -16 12 -17 -3 -4
-10 7 -18 15 -18 17 0 8 8 3 21 -13z m-808 -4 c-6 -6 -9 -19 -6 -28 4 -13 3
-14 -5 -1 -10 14 1 40 16 40 3 0 1 -5 -5 -11z m-4168 -19 c3 -6 -1 -7 -9 -4
-10 4 -16 1 -16 -7 0 -7 -3 -10 -6 -6 -7 7 4 27 16 27 5 0 12 -4 15 -10z m871
-32 l19 -23 -25 20 c-14 11 -27 21 -29 22 -2 2 0 3 6 3 5 0 18 -10 29 -22z
m-35 -5 c13 -16 12 -17 -3 -4 -10 7 -18 15 -18 17 0 8 8 3 21 -13z m4229 -28
c13 -14 21 -25 18 -25 -2 0 -15 11 -28 25 -13 14 -21 25 -18 25 2 0 15 -11 28
-25z m-5145 -15 c3 -6 -1 -7 -9 -4 -10 4 -16 1 -16 -7 0 -7 -3 -10 -6 -6 -7 7
4 27 16 27 5 0 12 -4 15 -10z m1065 -35 c0 -2 -9 -3 -19 -2 -11 0 -18 5 -15 9
4 6 34 0 34 -7z m-64 -10 c9 -8 25 -13 37 -11 12 1 17 1 10 -1 -6 -2 -13 -10
-15 -16 -2 -7 -15 -1 -33 16 -16 15 -26 27 -22 27 5 0 15 -7 23 -15z m213
-100 c49 -38 90 -72 90 -75 1 -3 -62 -93 -139 -200 -78 -107 -173 -241 -213
-298 -40 -56 -108 -153 -152 -216 -44 -62 -152 -219 -239 -349 l-160 -237 -25
16 c-13 9 -62 47 -108 85 -46 37 -91 73 -101 78 -16 9 -16 12 2 43 17 27 116
168 143 203 75 93 202 278 198 286 -4 5 -2 8 3 7 11 -3 192 233 192 250 0 7 4
12 8 12 8 0 132 165 132 175 0 4 -4 3 -10 0 -16 -10 -11 1 7 16 14 12 16 12 9
-1 -4 -8 6 1 23 20 17 19 29 42 28 50 -1 8 3 15 9 15 19 0 141 171 135 190 -1
6 1 7 5 3 11 -11 35 12 27 25 -8 13 5 4 136 -98z m2856 87 c-9 -9 57 -92 67
-86 7 4 8 2 4 -4 -9 -15 43 -84 57 -75 6 3 7 1 3 -5 -4 -7 29 -61 77 -124 46
-62 111 -151 146 -198 35 -47 67 -84 72 -83 4 2 6 -3 3 -11 -3 -7 5 -22 19
-32 13 -11 23 -22 23 -25 -1 -6 89 -132 109 -153 6 -6 18 -24 28 -39 10 -15
23 -25 29 -21 7 4 8 3 4 -5 -11 -17 12 -40 35 -36 11 2 17 0 14 -6 -4 -5 -11
-7 -16 -4 -21 13 -5 -12 83 -133 50 -70 106 -148 125 -173 18 -26 33 -49 33
-52 0 -5 -211 -174 -236 -190 -9 -5 -43 38 -115 145 -127 190 -486 704 -629
898 -141 193 -172 239 -168 250 6 19 203 168 220 167 9 -1 15 -3 13 -5z m1085
4 c0 -2 -7 -7 -16 -10 -8 -3 -12 -2 -9 4 6 10 25 14 25 6z m63 -23 c-5 -12 -2
-15 10 -10 22 8 21 4 -1 -16 -16 -15 -17 -14 -18 18 0 19 3 32 7 29 5 -2 5
-12 2 -21z m-5298 -3 c3 -6 -1 -7 -9 -4 -10 4 -16 1 -16 -7 0 -7 -3 -10 -6 -6
-7 7 4 27 16 27 5 0 12 -4 15 -10z m1088 -35 c-3 -9 -8 -14 -10 -11 -3 3 -2 9
2 15 9 16 15 13 8 -4z m3148 -7 c11 -20 10 -21 -3 -11 -8 7 -18 10 -22 6 -4
-4 -4 0 0 10 8 22 11 22 25 -5z m1094 2 c-10 -11 -23 -20 -28 -20 -6 0 0 9 13
20 13 11 25 20 28 20 3 0 -3 -9 -13 -20z m46 -17 c12 -16 12 -17 -2 -6 -9 7
-20 9 -24 5 -5 -4 -5 -1 -1 6 9 16 11 15 27 -5z m-5266 -23 c-3 -5 -12 -10
-18 -10 -7 0 -6 4 3 10 19 12 23 12 15 0z m4995 0 c-9 -6 -6 -9 11 -12 22 -3
22 -4 4 -9 -11 -3 -27 1 -37 10 -15 15 -14 16 9 18 17 1 22 -2 13 -7z m66 -5
c21 -20 -4 -20 -30 0 -18 14 -18 15 -2 15 9 0 24 -7 32 -15z m44 5 c0 -5 -5
-10 -11 -10 -5 0 -7 5 -4 10 3 6 8 10 11 10 2 0 4 -4 4 -10z m-5020 -20 c0 -5
-7 -7 -15 -4 -8 4 -15 8 -15 10 0 2 7 4 15 4 8 0 15 -4 15 -10z m5265 -40 l20
-25 -21 18 c-11 9 -24 14 -28 10 -4 -4 -4 1 0 10 3 10 7 17 8 15 1 -2 10 -14
21 -28z m-4459 -18 c-15 -15 -15 -15 -4 10 7 15 15 23 17 17 2 -6 -4 -18 -13
-27z m4409 18 c3 -6 -1 -7 -9 -4 -18 7 -21 14 -7 14 6 0 13 -4 16 -10z m-5110
-50 c10 -11 16 -20 13 -20 -3 0 -13 9 -23 20 -10 11 -16 20 -13 20 3 0 13 -9
23 -20z m4705 16 c0 -2 -8 -10 -17 -17 -16 -13 -17 -12 -4 4 13 16 21 21 21
13z m529 -40 c9 -11 9 -16 -1 -22 -7 -4 -10 -4 -6 1 4 4 3 14 -3 22 -6 7 -9
13 -6 13 2 0 10 -6 16 -14z m-5149 -36 c14 -11 21 -20 17 -20 -5 0 -20 9 -34
20 -14 11 -22 20 -17 20 5 0 20 -9 34 -20z m524 12 c3 -5 -1 -9 -9 -9 -8 0
-12 4 -9 9 3 4 7 8 9 8 2 0 6 -4 9 -8z m3991 -11 c3 -5 1 -12 -5 -16 -5 -3
-10 1 -10 9 0 18 6 21 15 7z m-4002 -26 c-3 -9 -8 -14 -10 -11 -3 3 -2 9 2 15
9 16 15 13 8 -4z m743 -51 c46 -36 84 -68 84 -71 0 -5 -99 -150 -305 -448
-275 -397 -444 -644 -519 -757 -42 -65 -79 -118 -82 -118 -2 0 -33 24 -67 53
-34 28 -76 63 -94 77 l-32 25 61 90 c300 440 848 1215 859 1215 6 0 48 -30 95
-66z m2268 -150 c365 -512 757 -1077 755 -1092 0 -6 -37 -37 -144 -120 l-43
-32 -97 142 c-53 79 -133 196 -178 261 -312 446 -386 553 -505 726 -87 127
-130 197 -123 204 28 28 167 126 176 124 5 -2 77 -98 159 -213z m1366 191 c0
-14 -2 -25 -4 -25 -2 0 -6 11 -8 25 -3 14 -1 25 3 25 5 0 9 -11 9 -25z m-20
-5 c0 -5 -5 -10 -11 -10 -5 0 -7 5 -4 10 3 6 8 10 11 10 2 0 4 -4 4 -10z
m-5600 -24 c0 -2 -8 -10 -17 -17 -16 -13 -17 -12 -4 4 13 16 21 21 21 13z
m4823 -11 c-3 -9 -8 -14 -10 -11 -3 3 -2 9 2 15 9 16 15 13 8 -4z m1178 -2
c13 -16 12 -17 -3 -4 -10 7 -18 15 -18 17 0 8 8 3 21 -13z m-5127 -2 c3 -5 -2
-15 -12 -22 -15 -13 -16 -12 -3 4 15 20 2 23 -19 5 -12 -11 -12 -10 -1 5 15
19 27 22 35 8z m5101 -11 c3 -5 1 -10 -4 -10 -6 0 -11 5 -11 10 0 6 2 10 4 10
3 0 8 -4 11 -10z m-430 -9 c3 -5 2 -12 -3 -15 -5 -3 -9 1 -9 9 0 17 3 19 12 6z
m272 -53 c17 0 19 -3 10 -13 -10 -11 -16 -11 -33 0 -12 8 -25 10 -30 5 -5 -5
-17 -3 -27 5 -17 12 -15 13 20 9 21 -3 48 -5 60 -6z m-5577 -8 c0 -5 -7 -10
-15 -10 -8 0 -15 5 -15 10 0 6 7 10 15 10 8 0 15 -4 15 -10z m34 -16 c3 -8 2
-12 -4 -9 -6 3 -10 10 -10 16 0 14 7 11 14 -7z m5180 -6 c-2 -3 -13 -6 -24 -5
-24 2 -18 13 9 13 11 0 18 -4 15 -8z m-5114 -8 c0 -5 -2 -10 -4 -10 -3 0 -8 5
-11 10 -3 6 -1 10 4 10 6 0 11 -4 11 -10z m5320 6 c0 -2 -7 -9 -15 -16 -13
-11 -14 -10 -9 4 5 14 24 23 24 12z m35 -6 c-3 -5 -12 -10 -18 -10 -7 0 -6 4
3 10 19 12 23 12 15 0z m-5353 -24 c7 4 10 4 6 -1 -4 -4 -2 -15 5 -24 6 -8 -2
-5 -20 7 -18 13 -36 28 -39 35 -4 7 2 4 14 -6 12 -11 26 -16 34 -11z m262 6
c2 -4 -4 -8 -14 -8 -10 0 -16 4 -14 8 3 4 9 8 14 8 5 0 11 -4 14 -8z m4801 -2
c4 -6 -1 -7 -11 -3 -13 5 -15 3 -9 -7 5 -9 4 -11 -4 -6 -6 4 -9 12 -6 17 8 12
22 12 30 -1z m45 -4 c-7 -7 -13 -7 -20 0 -6 6 -3 10 10 10 13 0 16 -4 10 -10z
m196 -15 c-15 -17 -46 -19 -46 -4 0 3 6 3 14 0 8 -3 20 1 26 9 7 8 15 14 18
14 3 0 -3 -9 -12 -19z m-4663 -19 c-3 -12 -9 -19 -14 -16 -5 3 -3 14 3 24 15
24 19 21 11 -8z m-342 1 c13 -16 12 -17 -3 -4 -17 13 -22 21 -14 21 2 0 10 -8
17 -17z m4719 13 c0 -2 -8 -10 -17 -17 -16 -13 -17 -12 -4 4 13 16 21 21 21
13z m220 -6 c0 -5 -2 -10 -4 -10 -3 0 -8 5 -11 10 -3 6 -1 10 4 10 6 0 11 -4
11 -10z m-3260 -16 c0 -1 -7 -21 -15 -44 -12 -34 -15 -105 -15 -371 0 -313 1
-331 21 -374 86 -183 347 -205 497 -40 56 61 82 128 82 211 0 34 3 82 6 108
l7 46 66 0 66 0 220 -217 c502 -495 989 -980 1011 -1006 35 -41 33 -106 -3
-147 -34 -38 -88 -52 -129 -35 -16 7 -154 136 -308 286 -153 151 -284 275
-290 276 -11 3 -92 -101 -98 -125 -2 -7 126 -142 285 -300 l287 -287 0 -45
c-1 -54 -16 -84 -56 -111 -42 -27 -95 -25 -136 8 -18 14 -155 148 -305 297
-150 148 -274 268 -276 266 -24 -30 -97 -140 -97 -146 0 -5 128 -134 284 -287
201 -195 288 -287 296 -310 23 -72 -39 -157 -115 -157 -40 0 -87 34 -180 130
-38 39 -146 144 -239 233 l-170 162 -17 -40 c-10 -22 -22 -65 -28 -95 l-10
-55 219 -215 c120 -118 222 -226 225 -238 12 -40 -4 -89 -36 -116 -24 -20 -41
-26 -80 -26 l-50 0 -214 211 -214 212 38 44 c64 72 85 126 85 218 1 63 -4 91
-22 130 -41 90 -116 150 -214 175 -45 12 -46 13 -52 59 -9 65 -50 144 -97 184
-45 39 -122 67 -185 67 l-44 0 0 38 c0 54 -52 154 -100 192 -91 72 -201 82
-308 29 -37 -19 -73 -33 -80 -32 -7 0 -11 -1 -8 -5 3 -3 -11 -23 -32 -46 -21
-23 -45 -52 -54 -65 l-17 -24 -103 94 c-150 138 -160 149 -155 162 3 7 40 62
82 122 42 61 130 189 196 285 66 96 194 283 285 415 91 132 175 255 186 273
18 29 24 32 64 30 24 -2 44 -4 44 -4z m1456 -55 c62 -82 499 -707 593 -849 46
-69 99 -147 117 -174 27 -40 31 -52 21 -64 -6 -9 -67 -64 -135 -124 l-123
-108 -61 60 c-33 33 -63 60 -65 60 -3 0 -116 109 -252 243 -503 497 -707 695
-737 721 l-32 26 -201 0 -201 0 0 -190 c0 -211 -6 -237 -60 -265 -45 -23 -94
-19 -129 11 l-31 26 0 261 c0 144 4 278 10 296 10 35 49 84 85 104 14 9 180
13 580 17 308 3 565 5 570 4 6 0 28 -25 51 -55z m1613 58 c-2 -1 -13 -9 -24
-17 -19 -14 -19 -14 -6 3 7 9 18 17 24 17 6 0 8 -1 6 -3z m221 -6 c0 -5 -7
-12 -16 -15 -14 -5 -15 -4 -4 9 14 17 20 19 20 6z m-5210 -23 c0 -6 -6 -5 -15
2 -8 7 -15 14 -15 16 0 2 7 1 15 -2 8 -4 15 -11 15 -16z m531 -1 c-10 -9 -11
-8 -5 6 3 10 9 15 12 12 3 -3 0 -11 -7 -18z m4380 10 c-6 -8 -7 -18 -3 -22 4
-5 1 -5 -6 -1 -10 6 -10 11 -1 22 6 8 14 14 16 14 3 0 0 -6 -6 -13z m-4880
-34 c13 -16 12 -17 -3 -4 -10 7 -18 15 -18 17 0 8 8 3 21 -13z m585 -13 c0
-12 -4 -16 -9 -11 -5 5 -6 14 -3 20 10 15 12 14 12 -9z m-540 -21 c19 -22 19
-22 -3 -8 -13 8 -23 17 -23 21 0 12 6 9 26 -13z m5029 -9 c-3 -5 -12 -10 -18
-10 -7 0 -6 4 3 10 19 12 23 12 15 0z m-4944 -67 c13 -16 12 -17 -3 -4 -10 7
-18 15 -18 17 0 8 8 3 21 -13z m412 2 c-3 -9 -8 -14 -10 -11 -3 3 -2 9 2 15 9
16 15 13 8 -4z m-29 -21 c3 -8 2 -12 -4 -9 -6 3 -10 10 -10 16 0 14 7 11 14
-7z m4166 -44 c0 -5 -2 -10 -4 -10 -3 0 -8 5 -11 10 -3 6 -1 10 4 10 6 0 11
-4 11 -10z m-4314 -162 c4 -7 4 -10 -1 -6 -4 4 -15 2 -24 -5 -14 -11 -14 -10
-2 6 16 20 18 21 27 5z m-536 -642 c0 -4 -7 -5 -16 -2 -12 5 -14 1 -9 -15 5
-15 4 -19 -4 -15 -6 4 -11 18 -11 32 0 14 4 22 10 19 6 -3 10 0 10 7 0 9 3 9
10 -2 5 -8 10 -19 10 -24z m35 -44 c-4 -4 -10 -2 -12 5 -2 7 -11 9 -19 6 -8
-3 -14 -1 -14 5 0 6 6 12 12 14 16 6 43 -20 33 -30z m5431 1 c-3 -4 -6 -1 -6
6 0 7 -4 9 -10 6 -11 -7 -14 8 -3 19 4 3 11 -1 16 -9 5 -9 6 -19 3 -22z
m-5418 -20 c20 -9 42 -17 47 -17 6 -1 9 -10 7 -20 -2 -13 1 -16 10 -10 10 6
10 5 2 -7 -6 -8 -14 -21 -17 -29 -5 -11 -6 -9 -6 5 2 37 -1 44 -16 39 -10 -4
-15 0 -15 11 0 9 -6 15 -12 12 -8 -2 -12 -17 -10 -38 3 -33 3 -33 -15 -16 -14
14 -15 21 -6 36 6 10 8 23 3 30 -9 15 -20 -7 -21 -42 0 -21 -1 -21 -12 2 -9
19 -9 25 1 29 6 2 12 8 12 14 0 6 -7 7 -16 4 -8 -3 -12 -2 -9 4 9 14 30 12 73
-7z m5352 -13 c0 -5 -5 -10 -11 -10 -5 0 -7 5 -4 10 3 6 8 10 11 10 2 0 4 -4
4 -10z m-37 -27 c-4 -10 -2 -14 5 -9 6 3 13 2 17 -4 3 -5 -1 -10 -9 -10 -18 0
-29 16 -21 30 10 16 15 12 8 -7z m-5283 -23 c0 -5 -4 -10 -10 -10 -5 0 -10 5
-10 10 0 6 5 10 10 10 6 0 10 -4 10 -10z m-55 -32 c13 -11 22 -25 19 -30 -3
-5 0 -7 6 -6 7 2 14 -5 15 -15 3 -13 -2 -16 -22 -13 -26 5 -25 6 -5 -43 3 -9
1 -12 -6 -8 -16 10 -50 137 -37 137 3 0 16 -10 30 -22z m158 -29 c-9 -9 -12
-7 -10 9 1 14 5 18 11 12 7 -7 6 -14 -1 -21z m5117 27 c0 -2 -8 -10 -17 -17
-16 -13 -17 -12 -4 4 13 16 21 21 21 13z m-5240 -101 c0 -8 5 -17 11 -21 9 -5
10 1 5 22 -4 19 -3 24 3 15 5 -7 14 -10 20 -7 14 9 14 3 0 -28 -7 -14 -15 -23
-20 -21 -4 3 -10 1 -14 -5 -3 -5 -3 -10 2 -11 4 0 19 -2 31 -3 13 -2 34 -16
47 -32 25 -30 32 -50 15 -39 -12 7 -13 -7 -2 -21 4 -5 -6 4 -23 19 -20 20 -26
31 -17 34 10 4 10 8 1 19 -16 19 -33 18 -25 -3 6 -14 4 -14 -14 2 -25 23 -49
62 -31 51 14 -9 14 -4 1 29 -7 17 -7 24 0 20 6 -3 10 -12 10 -20z m202 -7 c-7
-7 -12 -8 -12 -2 0 6 3 14 7 17 3 4 9 5 12 2 2 -3 -1 -11 -7 -17z m-99 -43
c-6 -17 -23 -20 -23 -5 0 6 5 10 11 10 5 0 7 5 3 12 -4 7 -3 8 4 4 6 -4 9 -13
5 -21z m178 -32 c-12 -20 -14 -14 -5 12 4 9 9 14 11 11 3 -2 0 -13 -6 -23z
m5059 13 c0 -2 -8 -10 -17 -17 -16 -13 -17 -12 -4 4 13 16 21 21 21 13z
m-3554 -47 c13 -12 29 -40 36 -61 18 -61 -6 -98 -171 -262 -137 -136 -150
-146 -185 -146 -91 0 -155 85 -123 162 16 37 30 53 204 222 l123 119 45 -6
c29 -3 55 -13 71 -28z m3468 -10 c-3 -6 0 -15 7 -20 9 -6 10 -9 2 -9 -15 0
-26 17 -18 30 3 6 8 10 11 10 3 0 2 -5 -2 -11z m-5064 -19 c0 -5 -4 -10 -10
-10 -5 0 -10 5 -10 10 0 6 5 10 10 10 6 0 10 -4 10 -10z m-20 -46 c0 -9 -6
-11 -17 -7 -16 6 -16 5 -4 -10 13 -16 14 -16 27 0 12 16 13 16 14 1 0 -22 -21
-28 -41 -11 -20 17 -14 54 7 46 8 -3 14 -11 14 -19z m4810 4 c0 -6 -6 -5 -15
2 -8 7 -15 14 -15 16 0 2 7 1 15 -2 8 -4 15 -11 15 -16z m-4514 -60 c16 -18
19 -24 6 -14 -12 11 -25 16 -29 12 -4 -4 -1 -12 7 -17 13 -9 13 -10 0 -6 -8 2
-15 15 -15 30 -1 15 0 27 0 27 1 0 14 -15 31 -32z m-206 -58 c-20 -12 -33 -1
-19 16 9 11 15 12 23 4 8 -8 7 -13 -4 -20z m4850 16 c0 -2 -8 -10 -17 -17 -16
-13 -17 -12 -4 4 13 16 21 21 21 13z m-4570 -22 c0 -8 -19 -13 -24 -6 -3 5 1
9 9 9 8 0 15 -2 15 -3z m-217 -79 c23 -32 17 -32 -13 0 -13 14 -19 25 -14 25
5 0 17 -12 27 -25z m292 6 c3 -5 2 -12 -3 -15 -5 -3 -9 1 -9 9 0 17 3 19 12 6z
m1464 -5 c57 -30 78 -104 47 -164 -8 -15 -85 -97 -173 -183 -112 -111 -167
-158 -187 -161 -86 -16 -169 82 -137 161 7 15 88 103 180 194 156 156 170 167
205 167 20 0 50 -7 65 -14z m2656 -35 c-6 -5 -25 10 -25 20 0 5 6 4 14 -3 8
-7 12 -15 11 -17z m-4089 7 c4 -7 4 -10 -1 -6 -4 4 -14 3 -22 -4 -10 -8 -17
-8 -26 1 -9 10 -8 11 4 6 10 -4 20 -2 24 4 8 14 12 14 21 -1z m-276 -33 c13
-14 21 -25 18 -25 -2 0 -15 11 -28 25 -13 14 -21 25 -18 25 2 0 15 -11 28 -25z
m57 0 c5 -4 2 -5 -4 -1 -16 9 -17 -6 -1 -22 7 -7 10 -12 7 -12 -3 0 -15 11
-27 23 -22 23 -22 24 -2 22 11 -1 23 -5 27 -10z m4573 9 c0 -8 -19 -13 -24 -6
-3 5 1 9 9 9 8 0 15 -2 15 -3z m-4305 -23 c3 -5 2 -12 -3 -15 -5 -3 -9 1 -9 9
0 17 3 19 12 6z m4275 -5 c0 -2 -8 -10 -17 -17 -16 -13 -17 -12 -4 4 13 16 21
21 21 13z m-4436 -21 c-4 -8 -11 -15 -18 -15 -6 0 -4 -5 4 -10 8 -5 13 -10 10
-11 -3 0 -13 -2 -23 -4 -9 -2 -15 1 -11 6 9 15 -8 10 -30 -8 -21 -18 -21 -18
-5 2 9 11 14 26 12 33 -3 6 0 12 6 12 6 0 11 -5 11 -11 0 -5 5 -7 10 -4 6 4 8
11 5 16 -4 5 3 9 14 9 14 0 19 -5 15 -15z m-86 -31 c2 -1 0 -4 -5 -7 -4 -3
-17 7 -27 22 l-20 26 25 -20 c13 -11 25 -21 27 -21z m247 8 c-3 -3 -11 0 -18
7 -9 10 -8 11 6 5 10 -3 15 -9 12 -12z m4235 4 c0 -2 -8 -10 -17 -17 -16 -13
-17 -12 -4 4 13 16 21 21 21 13z m-4138 -56 c15 -14 15 -17 3 -17 -8 0 -15 4
-15 9 0 4 -5 8 -11 8 -6 0 -8 -7 -5 -16 3 -8 2 -12 -3 -9 -13 7 -10 42 4 42 5
0 18 -8 27 -17z m3779 -17 c13 -16 12 -17 -3 -4 -17 13 -22 21 -14 21 2 0 10
-8 17 -17z m299 13 c0 -2 -8 -10 -17 -17 -16 -13 -17 -12 -4 4 13 16 21 21 21
13z m-4362 -18 c-2 -7 3 -12 10 -10 8 1 11 -2 7 -8 -9 -14 8 -13 25 3 12 10
12 9 1 -5 -11 -15 -11 -21 0 -35 7 -10 -3 -3 -24 16 -20 19 -34 38 -31 43 8
12 14 10 12 -4z m347 -38 c3 -6 -1 -7 -9 -4 -18 7 -21 14 -7 14 6 0 13 -4 16
-10z m-265 -6 c0 -8 -19 -13 -24 -6 -3 5 1 9 9 9 8 0 15 -2 15 -3z m4195 -14
c3 -6 -1 -7 -9 -4 -18 7 -21 14 -7 14 6 0 13 -4 16 -10z m-4200 -19 c-3 -5 -1
-12 5 -16 5 -3 10 -1 10 6 0 7 3 10 6 6 3 -3 3 -11 -1 -17 -5 -8 -11 -8 -21 1
-12 10 -11 29 2 29 3 0 3 -4 -1 -9z m75 -26 c10 -12 10 -19 2 -27 -16 -16 -15
-31 1 -22 6 4 9 4 5 -1 -4 -4 -3 -15 4 -24 6 -9 -6 1 -27 21 -33 31 -37 39
-26 52 17 20 25 20 41 1z m1709 -10 c30 -15 61 -68 61 -103 0 -47 -28 -84
-173 -230 -164 -164 -192 -182 -252 -162 -53 17 -85 62 -85 118 l0 46 173 173
c162 163 175 173 210 173 21 0 51 -7 66 -15z m2332 -49 c-20 -21 -39 -32 -48
-29 -12 5 -12 7 -2 14 7 4 17 5 22 2 5 -3 6 4 3 15 -4 11 -2 23 3 27 7 3 8 0
5 -9 -9 -23 9 -20 26 4 8 11 16 17 19 15 2 -3 -10 -21 -28 -39z m-3763 21 c8
-10 6 -13 -9 -14 -19 -2 -25 8 -12 20 8 9 9 9 21 -6z m3473 -14 c13 -16 12
-17 -3 -4 -10 7 -18 15 -18 17 0 8 8 3 21 -13z m-3581 -29 c0 -8 -5 -12 -10
-9 -6 4 -8 11 -5 16 9 14 15 11 15 -7z m-76 -71 c44 -47 57 -56 67 -45 18 17
24 15 37 -14 9 -19 17 -24 35 -20 12 3 17 3 10 0 -7 -3 -9 -13 -7 -22 3 -9 -8
-2 -25 16 -35 36 -41 39 -51 22 -5 -8 -17 -2 -36 18 -72 74 -97 102 -91 102 4
0 32 -26 61 -57z m3889 50 c3 -5 -6 -9 -20 -10 -19 -1 -22 1 -12 8 17 11 26
11 32 2z m-3842 -52 c32 -34 16 -36 -21 -2 -21 19 -27 29 -17 27 10 -1 26 -12
38 -25z m3829 26 c0 -2 -10 -12 -22 -23 l-23 -19 19 23 c18 21 26 27 26 19z
m-3524 -69 c16 -18 20 -25 8 -15 -26 22 -38 22 -30 0 4 -10 3 -14 -1 -9 -6 6
-13 56 -8 56 1 0 14 -15 31 -32z m3150 -14 c2 -12 -1 -13 -12 -3 -7 6 -11 16
-8 21 7 11 17 3 20 -18z m284 -8 c0 -2 -8 -10 -17 -17 -16 -13 -17 -12 -4 4
13 16 21 21 21 13z m-3670 -51 c19 -19 32 -35 29 -35 -3 0 -20 16 -39 35 -19
19 -32 35 -29 35 3 0 20 -16 39 -35z m301 8 c13 -16 12 -17 -3 -4 -17 13 -22
21 -14 21 2 0 10 -8 17 -17z m2963 -31 c3 -5 -1 -9 -9 -9 -8 0 -12 4 -9 9 3 4
7 8 9 8 2 0 6 -4 9 -8z m326 -11 c0 -5 -7 -12 -16 -15 -14 -5 -15 -4 -4 9 14
17 20 19 20 6z m-3543 -16 c0 -8 -4 -12 -9 -9 -5 3 -6 10 -3 15 9 13 12 11 12
-6z m93 -19 c-12 -12 -30 2 -24 19 5 11 9 12 19 2 7 -7 10 -16 5 -21z m-55 6
c-3 -3 -11 0 -18 7 -9 10 -8 11 6 5 10 -3 15 -9 12 -12z m3155 4 c0 -2 -6 -9
-14 -15 -11 -9 -16 -9 -22 0 -4 7 -3 9 4 5 6 -3 13 -2 17 4 6 10 15 14 15 6z
m-2851 -30 c9 -11 9 -16 0 -22 -7 -4 -9 -3 -5 4 3 6 2 13 -4 17 -5 3 -10 1
-10 -6 0 -7 -3 -10 -6 -6 -5 5 3 27 10 27 2 0 9 -6 15 -14z m2806 -5 c3 -5 2
-12 -3 -15 -5 -3 -9 1 -9 9 0 17 3 19 12 6z m40 -11 c-3 -5 -12 -10 -18 -10
-7 0 -6 4 3 10 19 12 23 12 15 0z m-2770 -59 c1 -10 -4 -18 -11 -18 -9 0 -10
5 -4 17 5 10 7 20 5 24 -3 3 -2 4 2 1 4 -3 7 -14 8 -24z m-301 3 c5 -14 4 -15
-9 -4 -17 14 -19 20 -6 20 5 0 12 -7 15 -16z m2976 -9 c-10 -12 -10 -15 0 -15
8 0 11 -3 7 -6 -3 -3 -11 -3 -17 1 -8 5 -8 11 1 21 6 8 14 14 16 14 3 0 0 -7
-7 -15z m-2939 -32 c13 -16 12 -17 -3 -4 -17 13 -22 21 -14 21 2 0 10 -8 17
-17z m63 8 c3 -5 -6 -8 -19 -8 -14 0 -28 3 -31 8 -3 5 6 9 20 9 14 0 27 -4 30
-9z m3166 5 c0 -2 -8 -10 -17 -17 -16 -13 -17 -12 -4 4 13 16 21 21 21 13z
m-2885 -36 c10 -11 16 -20 13 -20 -3 0 -13 9 -23 20 -10 11 -16 20 -13 20 3 0
13 -9 23 -20z m-297 -18 c25 -26 45 -52 40 -52 -2 0 -19 16 -38 35 -19 19 -31
35 -27 35 4 0 15 -8 25 -18z m1346 -75 c48 -46 86 -91 86 -100 0 -44 -85 -97
-156 -97 -111 0 -175 119 -106 202 31 38 74 77 84 78 4 0 45 -37 92 -83z
m-1214 63 c0 -5 -2 -10 -4 -10 -3 0 -8 5 -11 10 -3 6 -1 10 4 10 6 0 11 -4 11
-10z m160 0 c0 -5 -2 -10 -4 -10 -3 0 -8 5 -11 10 -3 6 -1 10 4 10 6 0 11 -4
11 -10z m-100 -20 c0 -5 -7 -10 -16 -10 -8 0 -12 5 -9 10 3 6 10 10 16 10 5 0
9 -4 9 -10z m-97 -7 c-9 -3 -8 -11 5 -31 9 -14 11 -23 5 -19 -7 5 -13 4 -13
-2 0 -12 19 -24 40 -27 8 -1 23 -5 33 -9 10 -4 17 -3 17 5 0 6 -4 8 -10 5 -5
-3 -10 -2 -10 4 0 18 17 21 30 6 10 -12 9 -20 -4 -40 -16 -24 -22 -44 -9 -32
9 10 34 -13 27 -25 -7 -11 -154 130 -154 147 0 5 7 1 15 -9 8 -11 18 -17 21
-13 4 4 2 13 -4 20 -12 15 -6 28 12 26 6 0 6 -3 -1 -6z m275 -21 c-2 -9 2 -16
9 -15 6 1 16 -4 23 -12 9 -10 8 -13 -5 -11 -8 1 -20 7 -27 14 -14 14 -19 54
-6 46 5 -3 7 -13 6 -22z m2712 14 c-10 -13 -40 -12 -40 1 0 3 7 3 15 0 8 -4
17 -2 20 3 4 6 9 10 12 10 3 0 0 -6 -7 -14z m-76 -7 c-3 -6 0 -15 7 -20 9 -6
10 -9 2 -9 -15 0 -26 17 -18 30 3 6 8 10 11 10 3 0 2 -5 -2 -11z m16 -52 c0
-2 -10 -12 -22 -23 l-23 -19 19 23 c18 21 26 27 26 19z m-96 -62 c-4 -8 -1
-15 5 -15 6 0 11 5 11 12 0 6 3 8 6 5 4 -4 1 -14 -6 -22 -12 -15 -14 -15 -22
-1 -5 9 -6 21 -3 26 9 15 15 12 9 -5z m-2448 -10 c-11 -8 -24 -15 -30 -15 -5
0 -1 7 10 15 10 8 24 14 29 14 6 0 1 -6 -9 -14z m-216 -30 c-7 -8 -18 -15 -24
-15 -6 0 -2 7 8 15 25 19 32 19 16 0z m2325 -5 c-1 -19 -25 -53 -25 -36 0 5
-8 2 -17 -5 -16 -12 -17 -12 -6 2 7 9 9 20 5 25 -4 4 1 2 11 -5 9 -7 18 -10
18 -5 1 5 2 14 4 19 1 6 3 13 3 18 4 15 9 6 7 -13z m-2327 -19 c16 12 16 12 0
-6 -18 -19 -18 -19 -35 0 -17 18 -17 18 0 6 14 -11 20 -11 35 0z m276 1 c3 -5
-1 -9 -9 -9 -8 0 -12 4 -9 9 3 4 7 8 9 8 2 0 6 -4 9 -8z m-269 -32 c-3 -5 1
-10 10 -10 9 0 13 -5 10 -10 -5 -8 -11 -7 -21 1 -12 10 -11 29 2 29 3 0 2 -4
-1 -10z m356 -27 l34 -38 -36 33 c-19 18 -39 29 -44 25 -4 -5 -5 -2 -1 5 10
16 7 17 47 -25z m-296 7 c-3 -5 -1 -10 6 -10 7 0 10 -3 6 -6 -9 -9 -28 6 -22
17 4 5 8 9 11 9 3 0 2 -4 -1 -10z m2185 7 c0 -2 -10 -12 -22 -23 l-23 -19 19
23 c18 21 26 27 26 19z m-2173 -44 c5 3 9 -3 9 -13 0 -17 -2 -16 -28 4 -15 11
-27 25 -27 30 -1 5 8 1 18 -8 11 -10 24 -16 28 -13z m2167 -9 c3 -8 2 -12 -4
-9 -6 3 -10 10 -10 16 0 14 7 11 14 -7z m-1889 -22 c-3 -3 -11 0 -18 7 -9 10
-8 11 6 5 10 -3 15 -9 12 -12z m69 -13 c-3 -5 0 -16 6 -24 9 -11 9 -15 1 -15
-6 0 -12 3 -12 8 -6 33 -5 51 3 46 4 -3 6 -10 2 -15z m1743 6 c0 -8 -4 -12 -9
-9 -5 3 -6 10 -3 15 9 13 12 11 12 -6z m343 11 c0 -2 -8 -10 -17 -17 -16 -13
-17 -12 -4 4 13 16 21 21 21 13z m-2344 -17 c3 -6 1 -16 -5 -22 -9 -9 -10 -7
-5 7 6 16 4 18 -10 13 -10 -4 -15 -3 -11 3 8 13 22 13 31 -1z m-45 -16 c13
-16 12 -17 -3 -4 -17 13 -22 21 -14 21 2 0 10 -8 17 -17z m2009 -38 c14 -19
14 -19 -2 -6 -10 7 -18 18 -18 24 0 6 1 8 3 6 1 -2 9 -13 17 -24z m-30 1 c0
-2 -8 -10 -17 -17 -16 -13 -17 -12 -4 4 13 16 21 21 21 13z m330 -10 c0 -2 -8
-10 -17 -17 -16 -13 -17 -12 -4 4 13 16 21 21 21 13z m-2175 -16 c4 -6 3 -10
-2 -9 -21 4 -24 -3 -6 -18 10 -10 14 -15 9 -10 -16 12 -26 8 -20 -7 3 -8 15
-16 27 -18 12 -2 23 -9 23 -15 3 -24 4 -24 19 -9 20 20 48 10 36 -12 -20 -35
-54 -17 -130 70 -23 27 -23 27 -3 23 12 -2 24 0 27 6 8 12 12 11 20 -1z m277
-7 c10 -9 18 -21 18 -26 0 -6 -8 0 -19 11 -22 26 -36 28 -26 5 5 -14 3 -15 -6
-6 -11 11 -5 33 8 33 4 0 15 -7 25 -17z m1858 -13 c0 -5 -2 -10 -4 -10 -3 0
-8 5 -11 10 -3 6 -1 10 4 10 6 0 11 -4 11 -10z m-2084 -9 c-4 -5 -1 -11 6 -13
8 -3 6 -7 -5 -11 -12 -5 -17 -1 -17 13 0 11 5 20 11 20 5 0 8 -4 5 -9z m2052
-16 c-3 -3 -9 2 -12 12 -6 14 -5 15 5 6 7 -7 10 -15 7 -18z m-1968 -51 c0 -2
-7 -4 -15 -4 -8 0 -15 4 -15 10 0 5 7 7 15 4 8 -4 15 -8 15 -10z m1605 -12
c-3 -3 -11 0 -18 7 -9 10 -8 11 6 5 10 -3 15 -9 12 -12z m315 15 c0 -2 -13
-15 -28 -30 -24 -23 -28 -24 -28 -8 0 10 5 17 12 14 6 -2 17 3 24 12 12 14 20
19 20 12z m-1950 -52 c0 -2 -6 -5 -13 -8 -8 -3 -14 1 -14 8 0 7 6 11 14 8 7
-3 13 -6 13 -8z m32 -22 c-10 -4 -10 -8 -1 -19 6 -8 15 -11 20 -8 5 3 9 0 9
-5 0 -17 -12 -12 -45 15 -16 15 -22 24 -13 21 10 -4 20 -2 24 4 3 6 9 7 13 3
3 -4 0 -9 -7 -11z m1818 -27 c0 -2 -7 -7 -16 -10 -8 -3 -12 -2 -9 4 6 10 25
14 25 6z m-1733 -63 c5 3 9 -3 9 -14 0 -17 -3 -16 -28 8 -31 30 -39 46 -9 19
11 -10 24 -16 28 -13z m63 12 c0 -8 -4 -15 -10 -15 -5 0 -10 7 -10 15 0 8 5
15 10 15 6 0 10 -7 10 -15z m1576 3 c4 -7 3 -8 -4 -4 -7 4 -12 2 -12 -5 0 -7
-3 -10 -6 -6 -6 5 3 27 11 27 2 0 7 -5 11 -12z m28 3 c3 -4 -4 -17 -17 -27
-22 -19 -22 -19 -4 2 9 11 14 24 10 27 -3 4 -4 7 0 7 3 0 8 -4 11 -9z m-1586
-51 c-7 -10 -14 -18 -15 -16 -6 6 9 36 18 36 5 0 4 -9 -3 -20z m1222 16 c0 -2
-8 -10 -17 -17 -16 -13 -17 -12 -4 4 13 16 21 21 21 13z m-1232 -49 c14 5 15
3 5 -7 -10 -11 -15 -11 -28 0 -8 7 -15 18 -15 24 0 6 5 3 11 -6 6 -11 16 -15
27 -11z m57 -17 c3 -5 2 -10 -4 -10 -5 0 -13 5 -16 10 -3 6 -2 10 4 10 5 0 13
-4 16 -10z m-4 -30 c6 0 7 -4 4 -10 -13 -20 14 -9 30 13 16 21 16 21 11 -19
-4 -36 -1 -43 20 -54 22 -12 33 -30 18 -30 -3 0 -31 25 -62 55 -31 30 -61 55
-65 55 -5 0 -5 5 -2 10 4 6 12 4 21 -5 9 -8 20 -15 25 -15z m1052 -25 c-3 -9
-8 -14 -10 -11 -3 3 -2 9 2 15 9 16 15 13 8 -4z m-929 -4 c4 -5 -3 -7 -14 -4
-23 6 -26 13 -6 13 8 0 17 -4 20 -9z m1266 5 c0 -2 -8 -10 -17 -17 -16 -13
-17 -12 -4 4 13 16 21 21 21 13z m-996 -45 c29 -32 12 -25 -25 11 -19 17 -25
26 -14 20 11 -5 29 -20 39 -31z m-268 -45 c0 -20 -3 -22 -17 -13 -13 8 -14 13
-5 23 16 19 22 17 22 -10z m814 -10 c0 -2 -8 -10 -17 -17 -16 -13 -17 -12 -4
4 13 16 21 21 21 13z m-780 -26 c0 -5 -2 -10 -4 -10 -3 0 -8 5 -11 10 -3 6 -1
10 4 10 6 0 11 -4 11 -10z m320 -6 c0 -8 -19 -13 -24 -6 -3 5 1 9 9 9 8 0 15
-2 15 -3z m723 -21 c8 -8 -12 -33 -26 -33 -6 0 -2 7 9 16 17 14 17 15 1 10
-11 -3 -16 -2 -12 4 7 12 19 13 28 3z m-996 -17 c0 -8 -6 -12 -15 -9 -11 5
-11 7 0 14 7 5 13 9 14 9 0 0 1 -6 1 -14z m73 0 c-4 -4 -16 -4 -26 2 -16 9
-14 10 8 9 15 -1 23 -6 18 -11z m880 -6 c0 -5 -5 -10 -11 -10 -5 0 -7 5 -4 10
3 6 8 10 11 10 2 0 4 -4 4 -10z m-877 -25 c-3 -9 -8 -14 -10 -11 -3 3 -2 9 2
15 9 16 15 13 8 -4z m561 1 c-8 -20 -31 -27 -31 -10 0 7 4 11 8 8 4 -2 10 0
14 6 9 15 15 12 9 -4z m-289 -25 c-6 -5 -25 10 -25 20 0 5 6 4 14 -3 8 -7 12
-15 11 -17z m574 26 c-2 -1 -13 -9 -24 -17 -19 -14 -19 -14 -6 3 7 9 18 17 24
17 6 0 8 -1 6 -3z m-878 -24 c13 -16 12 -17 -3 -4 -17 13 -22 21 -14 21 2 0
10 -8 17 -17z m114 -23 c3 -5 2 -10 -4 -10 -5 0 -13 5 -16 10 -3 6 -2 10 4 10
5 0 13 -4 16 -10z m745 -4 c0 -2 -8 -10 -17 -17 -16 -13 -17 -12 -4 4 13 16
21 21 21 13z m-779 -43 c13 -16 12 -17 -3 -4 -10 7 -18 15 -18 17 0 8 8 3 21
-13z m37 -25 c-2 -8 5 -12 17 -10 16 2 17 1 5 -7 -16 -11 -44 5 -34 20 8 13
14 11 12 -3z m662 -3 c0 -2 -6 -8 -13 -14 -10 -8 -14 -7 -14 2 0 8 6 14 14 14
7 0 13 -1 13 -2z m-60 -19 c0 -2 -8 -10 -17 -17 -16 -13 -17 -12 -4 4 13 16
21 21 21 13z m20 -20 c0 -2 -17 -16 -37 -31 l-38 -27 33 31 c30 29 42 37 42
27z m-498 -41 c30 1 36 -1 27 -12 -9 -10 -8 -13 2 -14 11 0 11 -2 1 -6 -9 -4
-10 -8 -2 -18 8 -9 8 -15 0 -20 -6 -4 -9 -1 -8 7 2 7 -3 12 -10 10 -8 -1 -11
2 -8 7 3 5 -1 12 -10 15 -9 3 -12 11 -8 18 5 7 2 9 -9 5 -9 -3 -21 1 -29 11
-11 15 -11 16 2 7 8 -6 32 -10 52 -10z m418 1 c0 -2 -7 -7 -16 -10 -8 -3 -12
-2 -9 4 6 10 25 14 25 6z m0 -24 c0 -5 -13 -18 -28 -29 -25 -19 -28 -19 -28
-3 0 10 5 16 12 13 6 -2 17 3 24 12 14 17 20 19 20 7z m-348 -74 c-12 -12 -35
-1 -27 12 3 5 13 6 21 3 10 -4 12 -9 6 -15z m44 7 c-1 -8 -7 -20 -13 -26 -13
-13 -13 7 0 29 11 16 16 15 13 -3z m219 -5 c3 -5 1 -10 -4 -10 -6 0 -11 5 -11
10 0 6 2 10 4 10 3 0 8 -4 11 -10z m-16 -23 c-2 -1 -13 -9 -24 -17 -19 -14
-19 -14 -6 3 7 9 18 17 24 17 6 0 8 -1 6 -3z m-198 -34 c13 -16 12 -17 -3 -4
-17 13 -22 21 -14 21 2 0 10 -8 17 -17z m97 -15 c-2 -7 5 -12 15 -12 22 2 22
-3 -2 -15 -13 -7 -23 -6 -37 4 -17 14 -17 14 -1 9 10 -4 17 -3 16 2 -2 13 0
24 6 24 3 0 4 -6 3 -12z m-57 -15 c13 -16 12 -17 -3 -4 -17 13 -22 21 -14 21
2 0 10 -8 17 -17z"/>
<path d="M2520 4166 c0 -9 5 -16 10 -16 6 0 10 4 10 9 0 6 -4 13 -10 16 -5 3
-10 -1 -10 -9z"/>
<path d="M3074 3579 c-10 -17 13 -36 27 -22 12 12 4 33 -11 33 -5 0 -12 -5
-16 -11z"/>
<path d="M3705 2930 c10 -11 20 -18 23 -16 5 6 -23 36 -34 36 -4 0 1 -9 11
-20z"/>
<path d="M4455 2230 c3 -5 8 -10 11 -10 2 0 4 5 4 10 0 6 -5 10 -11 10 -5 0
-7 -4 -4 -10z"/>
<path d="M4916 1821 c-3 -5 0 -11 7 -14 8 -3 14 1 14 9 0 16 -13 19 -21 5z"/>
</g>
</svg>
