<?xml version="1.0" encoding="UTF-8"?><svg id="Layer_1" xmlns="http://www.w3.org/2000/svg" viewBox="0 0 281.77 340.08"><defs><style>.cls-1{fill:#001f3f;}.cls-1,.cls-2,.cls-3{stroke-width:0px;}.cls-2{fill:#1a3552;}.cls-3{fill:#fff;}</style></defs><path class="cls-1" d="M137.63,340.08c-6.99-4.14-14.64-6.91-21.91-10.47-25.49-12.47-49.59-27.04-70.31-46.71-18.97-18.01-33.47-38.94-41.23-64.22-2.78-9.07-3.43-18.43-3.75-27.83-1.28-38.14.69-76.24,1-114.37.07-8.87.11-17.73.2-26.6.06-6,2.61-8.95,8.56-9.76,5.57-.76,11.16-1.36,16.74-2.04,2.49,4.36,6.71,7.13,9.96,10.79,1.17,1.32,2.49,2.49,2.66,4.4-5.99.85-11.95,1.89-17.97,2.48-2.56.25-3.25,1.04-3.25,3.59-.02,14.52-.16,29.05-.4,43.57-.51,31.15-1.76,62.3-.2,93.45.3,6.09,1.1,12.12,2.95,17.98,7.98,25.32,23.55,45.34,43.34,62.36,19.25,16.55,41.04,29.02,63.91,39.71,4.09,1.91,8.22,5.15,12.34,5.17,4.1.02,8.21-3.24,12.32-5.07.4-.18.8-.33,1.2-.52,23.65-11.1,46.16-24.04,65.98-41.32,8.27-7.21,15.62-15.26,22.42-23.85,5.5,2.29,8.86,6.86,12.14,11.51-7.09,9.47-15.31,17.77-24.24,25.55-7.29,6.35-14.85,12.25-22.79,17.67-19.69,13.45-40.98,23.94-62.74,33.52-.76.33-1.83,0-2.3.99h-4.64Z"/><path class="cls-2" d="M39.55,53.28c-.17-1.9-1.49-3.08-2.66-4.4-3.25-3.66-7.46-6.43-9.96-10.79,15.94-2.22,31.87-4.49,47.55-8.28,19.95-4.81,38.65-12.39,54.58-25.65,6.45-5.37,11.93-5.46,18.96-.78,16.12,10.73,33.24,19.61,51.8,25.48,16.08,5.09,32.5,8.07,49.31,9.17,7.71.5,15.41,1.17,23.1,1.88,4.87.45,7.9,3.68,7.83,8.62-.72,45.14,2.56,90.22,1.51,135.38-.66,28.28-8.7,53.78-25.5,76.48-.52.7-1.15,1.3-1.73,1.95-3.28-4.65-6.64-9.22-12.14-11.51.52-.84,1-1.7,1.56-2.51,9.94-14.21,16.81-29.7,19.3-46.99,1.31-9.11,1.63-18.28,1.79-27.47.52-29.16-1-58.28-1.39-87.42-.12-9.2-.18-18.4-.15-27.6,0-2.03-.43-3.02-2.71-3.03-3.19-.02-6.38-.44-9.57-.64-12.55-.8-25.03-2.25-37.33-4.94-26.08-5.69-49.99-16.55-72.39-30.94-1.64-1.05-2.76-1.07-4.33.12-3.56,2.69-7.22,5.26-10.95,7.7-14.84,9.73-31.39,15.24-48.43,19.42-12.52,3.07-25.16,5.6-38.03,6.73Z"/><path class="cls-1" d="M233.2,241.63c-13.45,18.95-31.2,33.05-50.72,45.09-10.52,6.49-21.3,12.52-32.65,17.46-.87.38-1.75.78-2.55,1.29-4.17,2.62-8.21,2.77-12.8.6-23.8-11.29-46.6-24.12-66.25-41.98-15.93-14.48-28.49-31.28-35.48-51.97-2.44-7.22-2.89-14.72-3.07-22.14-.91-38.03.31-76.05,1.1-114.07.13-6.35,2.71-9.13,8.96-9.97,5.67-.75,11.33-1.63,16.99-2.45-.08,1.97,1.52,2.86,2.65,4,56.93,57.2,113.88,114.39,170.84,171.57.93.93,1.7,2.06,2.99,2.58Z"/><path class="cls-2" d="M233.2,241.63c-1.28-.52-2.06-1.65-2.99-2.58-56.96-57.18-113.91-114.37-170.84-171.57-1.13-1.14-2.73-2.03-2.65-4,20.27-3.8,40.35-8.32,59.28-16.88,6.34-2.87,12.47-6.11,18.18-10.15,3.52-2.49,7.22-2.65,11.08-.34,22.37,13.39,46.38,22.5,71.95,27.46,8.57,1.66,17.23,2.58,25.89,3.56,4.75.54,7.7,3.69,7.76,8.39.45,34.26,2.25,68.51,1.44,102.79-.37,15.67-1.44,31.25-8.62,45.58-3.08,6.13-5.86,12.49-10.48,17.73Z"/><path class="cls-3" d="M65.45,170.86c-.08-41.55,33.79-75.76,75.17-75.91,41.53-.15,75.61,34.04,75.62,75.87.01,41.33-33.81,75.26-75.13,75.38-41.52.12-75.58-33.8-75.66-75.34ZM70.03,147.34c2.18,1.72,3.38,2.72,4.64,3.63,11.96,8.73,23.88,17.51,35.93,26.11,2.34,1.67,2.81,3.09,1.88,5.85-4.8,14.29-9.36,28.67-14.01,43.01-.4,1.25-.77,2.51-1.52,4.97,15.43-11.2,29.66-21.54,43.93-31.9,14.42,10.48,28.62,20.79,43.82,31.83-.78-2.71-1.17-4.25-1.66-5.75-4.53-13.92-8.98-27.86-13.69-41.72-1.02-3-.59-4.65,2.05-6.53,12.31-8.74,24.46-17.71,36.66-26.62.98-.72,1.87-1.57,3.42-2.89-17.19,0-33.47-.08-49.75.07-2.98.03-4.34-.74-5.27-3.73-4.52-14.54-9.33-28.99-14.05-43.46-.36-1.1-.83-2.16-1.59-4.13-.86,2.48-1.42,3.98-1.91,5.51-4.56,14.06-9.18,28.11-13.62,42.21-.85,2.71-2.11,3.63-4.99,3.6-14.81-.15-29.62-.07-44.43-.07-1.55,0-3.11,0-5.82,0Z"/></svg>